<svg width="127" height="24" viewBox="0 0 127 24" fill="none" xmlns="http://www.w3.org/2000/svg">
<path d="M18.5625 3.88965C18.9734 3.88965 19.3661 4.06037 19.6572 4.36523L21.2285 6.01074C21.5196 6.31334 21.6825 6.72613 21.6826 7.15625V15.5439C21.6826 15.9741 21.5196 16.3847 21.2285 16.6895L18.418 19.6328C18.1289 19.9375 17.7341 20.1084 17.3232 20.1084H3.7168V18.1621H18.585C19.2683 18.1621 19.824 17.5807 19.8242 16.8652V6.48633C19.8242 6.12753 19.5477 5.83803 19.2051 5.83789H3.09766C2.41422 5.83789 1.85855 6.41922 1.8584 7.13477V23.998H0V8.4541C0 8.02383 0.162931 7.61248 0.454102 7.30762L3.26465 4.36523C3.55375 4.06037 3.94843 3.88965 4.35938 3.88965H18.5625ZM43.0332 3.88965C43.4441 3.88965 43.8368 4.06046 44.1279 4.36523L45.6992 6.01074C45.9903 6.31334 46.1542 6.72613 46.1543 7.15625V15.5439C46.1542 15.9741 45.9903 16.3846 45.6992 16.6895L42.8887 19.6328C42.5997 19.9373 42.2056 20.1083 41.7949 20.1084H27.5889C27.1782 20.1083 26.7862 19.9373 26.4951 19.6328L24.9229 17.9873C24.6317 17.6846 24.4688 17.2711 24.4688 16.8408V15.5889C24.4688 15.1588 24.6319 14.7481 24.9229 14.4434L27.7334 11.5C28.0225 11.1952 28.4173 11.0245 28.8281 11.0244H42.4346V12.9707H27.5664C26.8831 12.9708 26.3274 13.5522 26.3271 14.2676V17.5117C26.3274 17.8704 26.6046 18.1602 26.9473 18.1602H43.0547C43.738 18.1599 44.293 17.5779 44.293 16.8623V6.48438C44.293 6.12546 44.0166 5.83594 43.6738 5.83594H27.5664C26.883 5.83602 26.3272 6.41722 26.3271 7.13281V9.0791H24.4688V8.4541C24.4688 8.02384 24.6317 7.61248 24.9229 7.30762L27.7334 4.36523C28.0225 4.06041 28.4172 3.88969 28.8281 3.88965H43.0332ZM50.7998 20.1084H48.9404V0H50.7998V20.1084ZM72.1504 3.88965C72.5611 3.88978 72.9531 4.06059 73.2441 4.36523L74.8154 6.01074C75.1065 6.31334 75.2704 6.72613 75.2705 7.15625V8.4082C75.2705 8.83847 75.1066 9.24982 74.8154 9.55469L72.0049 12.4971C71.7158 12.8018 71.3219 12.9726 70.9111 12.9727H57.3047V11.0273H72.1729C72.8563 11.0272 73.4121 10.4451 73.4121 9.72949V6.48633C73.4121 6.12744 73.1348 5.83789 72.792 5.83789H56.6846C56.0013 5.83806 55.4464 6.41932 55.4463 7.13477V17.5137C55.4464 17.8725 55.7227 18.1621 56.0654 18.1621H72.1729C72.8561 18.162 73.4119 17.5806 73.4121 16.8652V14.9189H75.2705V15.5439C75.2704 15.9741 75.1065 16.3846 74.8154 16.6895L72.0049 19.6328C71.7159 19.9373 71.3218 20.1083 70.9111 20.1084H56.7051C56.2945 20.1083 55.9024 19.9373 55.6113 19.6328L54.04 17.9873C53.7489 17.6846 53.585 17.2711 53.585 16.8408V8.4541C53.585 8.02383 53.7489 7.61248 54.04 7.30762L56.8496 4.36523C57.1387 4.06042 57.5335 3.8897 57.9443 3.88965H72.1504ZM79.9189 5.05469C79.9189 5.34442 80.2532 5.48742 80.4473 5.28418L81.3232 4.36719C81.6122 4.06265 82.0063 3.89169 82.417 3.8916H88.8994V5.83789H81.1553C80.472 5.83805 79.9172 6.41936 79.917 7.13477H79.9209V17.5137C79.921 17.8725 80.1974 18.162 80.54 18.1621H85.8057C86.4891 18.1621 87.0447 17.5807 87.0449 16.8652V14.9189H88.9033V15.5439C88.9033 15.9741 88.7403 16.3846 88.4492 16.6895L85.6387 19.6328C85.3496 19.9375 84.9548 20.1084 84.5439 20.1084H81.1807C80.7698 20.1084 80.3771 19.9375 80.0859 19.6328L78.5146 17.9873C78.2235 17.6846 78.0605 17.2711 78.0605 16.8408V0H79.9189V5.05469ZM93.5479 5.05469C93.5479 5.34437 93.882 5.48728 94.0762 5.28418L94.9521 4.36719C95.2412 4.06247 95.636 3.8916 96.0469 3.8916H102.528V5.83789H94.7852C94.1017 5.83789 93.5461 6.41926 93.5459 7.13477H93.5498V17.5137C93.5499 17.8725 93.8272 18.1621 94.1699 18.1621H99.4355C100.119 18.162 100.674 17.5806 100.674 16.8652V14.9189H102.533V15.5439C102.533 15.9742 102.369 16.3846 102.078 16.6895L99.2676 19.6328C98.9786 19.9373 98.5845 20.1083 98.1738 20.1084H94.8096C94.3987 20.1084 94.006 19.9376 93.7148 19.6328L92.1436 17.9873C91.8524 17.6846 91.6895 17.2711 91.6895 16.8408V0H93.5479V5.05469ZM123.879 3.88965C124.29 3.88965 124.682 4.06047 124.974 4.36523L126.545 6.01074C126.836 6.31334 127 6.72613 127 7.15625V8.4082C127 8.83847 126.836 9.24982 126.545 9.55469L123.734 12.4971C123.445 12.8018 123.051 12.9726 122.641 12.9727H109.034V11.0273H123.902C124.586 11.0272 125.141 10.4451 125.141 9.72949V6.48633C125.141 6.12744 124.864 5.83789 124.521 5.83789H108.414C107.731 5.83804 107.176 6.41931 107.176 7.13477V17.5137C107.176 17.8725 107.452 18.1621 107.795 18.1621H123.902C124.586 18.162 125.14 17.5806 125.141 16.8652V14.9189H127V15.5439C127 15.9741 126.836 16.3846 126.545 16.6895L123.734 19.6328C123.445 19.9373 123.051 20.1083 122.641 20.1084H108.435C108.024 20.1083 107.632 19.9373 107.341 19.6328L105.769 17.9873C105.477 17.6846 105.314 17.2711 105.314 16.8408V8.4541C105.314 8.02384 105.477 7.61248 105.769 7.30762L108.579 4.36523C108.868 4.06041 109.263 3.88969 109.674 3.88965H123.879Z" fill="black"/>
</svg>
